<mxfile host="app.diagrams.net" modified="2023-10-22T08:41:42.284Z" agent="Mozilla/5.0 (Windows NT 10.0; Win64; x64) AppleWebKit/537.36 (KHTML, like Gecko) Chrome/117.0.0.0 Safari/537.36" etag="U4kXC6w5xg0bkWHSMz7v" version="22.0.6" type="device">
  <diagram name="Страница — 1" id="OAlgc6mqVdstwr_0eiID">
    <mxGraphModel dx="880" dy="478" grid="1" gridSize="10" guides="1" tooltips="1" connect="1" arrows="1" fold="1" page="1" pageScale="1" pageWidth="827" pageHeight="1169" math="0" shadow="0">
      <root>
        <mxCell id="0" />
        <mxCell id="1" parent="0" />
        <mxCell id="yEK2F6XeM_rVD2lMVvi1-1" value="Пользователи" style="rounded=0;whiteSpace=wrap;html=1;" vertex="1" parent="1">
          <mxGeometry x="110" y="80" width="120" height="60" as="geometry" />
        </mxCell>
        <mxCell id="yEK2F6XeM_rVD2lMVvi1-2" value="емэил" style="rounded=1;whiteSpace=wrap;html=1;" vertex="1" parent="1">
          <mxGeometry x="260" y="80" width="60" height="20" as="geometry" />
        </mxCell>
        <mxCell id="yEK2F6XeM_rVD2lMVvi1-3" value="Объявления" style="rounded=0;whiteSpace=wrap;html=1;" vertex="1" parent="1">
          <mxGeometry x="370" y="280" width="120" height="60" as="geometry" />
        </mxCell>
        <mxCell id="yEK2F6XeM_rVD2lMVvi1-4" value="Заголовок" style="rounded=1;whiteSpace=wrap;html=1;" vertex="1" parent="1">
          <mxGeometry x="560" y="260" width="80" height="20" as="geometry" />
        </mxCell>
        <mxCell id="yEK2F6XeM_rVD2lMVvi1-5" value="Текст" style="rounded=1;whiteSpace=wrap;html=1;" vertex="1" parent="1">
          <mxGeometry x="560" y="290" width="80" height="20" as="geometry" />
        </mxCell>
        <mxCell id="yEK2F6XeM_rVD2lMVvi1-6" value="Мультимедиа контент" style="rounded=1;whiteSpace=wrap;html=1;" vertex="1" parent="1">
          <mxGeometry x="560" y="320" width="80" height="30" as="geometry" />
        </mxCell>
        <mxCell id="yEK2F6XeM_rVD2lMVvi1-7" value="Дата создания" style="rounded=1;whiteSpace=wrap;html=1;" vertex="1" parent="1">
          <mxGeometry x="560" y="360" width="80" height="30" as="geometry" />
        </mxCell>
        <mxCell id="yEK2F6XeM_rVD2lMVvi1-8" value="Никнейм" style="rounded=1;whiteSpace=wrap;html=1;" vertex="1" parent="1">
          <mxGeometry x="260" y="120" width="60" height="20" as="geometry" />
        </mxCell>
        <mxCell id="yEK2F6XeM_rVD2lMVvi1-16" value="" style="endArrow=none;html=1;rounded=0;entryX=0;entryY=0.5;entryDx=0;entryDy=0;exitX=1;exitY=0.5;exitDx=0;exitDy=0;" edge="1" parent="1" source="yEK2F6XeM_rVD2lMVvi1-3" target="yEK2F6XeM_rVD2lMVvi1-4">
          <mxGeometry width="50" height="50" relative="1" as="geometry">
            <mxPoint x="370" y="290" as="sourcePoint" />
            <mxPoint x="420" y="240" as="targetPoint" />
          </mxGeometry>
        </mxCell>
        <mxCell id="yEK2F6XeM_rVD2lMVvi1-18" value="" style="endArrow=none;html=1;rounded=0;entryX=0;entryY=0.5;entryDx=0;entryDy=0;exitX=1;exitY=0.5;exitDx=0;exitDy=0;" edge="1" parent="1" source="yEK2F6XeM_rVD2lMVvi1-3" target="yEK2F6XeM_rVD2lMVvi1-5">
          <mxGeometry width="50" height="50" relative="1" as="geometry">
            <mxPoint x="390" y="280" as="sourcePoint" />
            <mxPoint x="440" y="230" as="targetPoint" />
          </mxGeometry>
        </mxCell>
        <mxCell id="yEK2F6XeM_rVD2lMVvi1-19" value="" style="endArrow=none;html=1;rounded=0;entryX=0;entryY=0.5;entryDx=0;entryDy=0;exitX=1;exitY=0.5;exitDx=0;exitDy=0;" edge="1" parent="1" source="yEK2F6XeM_rVD2lMVvi1-3" target="yEK2F6XeM_rVD2lMVvi1-6">
          <mxGeometry width="50" height="50" relative="1" as="geometry">
            <mxPoint x="390" y="280" as="sourcePoint" />
            <mxPoint x="440" y="230" as="targetPoint" />
          </mxGeometry>
        </mxCell>
        <mxCell id="yEK2F6XeM_rVD2lMVvi1-20" value="" style="endArrow=none;html=1;rounded=0;entryX=1;entryY=0.5;entryDx=0;entryDy=0;exitX=0;exitY=0.5;exitDx=0;exitDy=0;" edge="1" parent="1" source="yEK2F6XeM_rVD2lMVvi1-7" target="yEK2F6XeM_rVD2lMVvi1-3">
          <mxGeometry width="50" height="50" relative="1" as="geometry">
            <mxPoint x="470" y="380" as="sourcePoint" />
            <mxPoint x="520" y="330" as="targetPoint" />
          </mxGeometry>
        </mxCell>
        <mxCell id="yEK2F6XeM_rVD2lMVvi1-21" value="" style="endArrow=none;html=1;rounded=0;entryX=0;entryY=0.5;entryDx=0;entryDy=0;exitX=1;exitY=0.5;exitDx=0;exitDy=0;" edge="1" parent="1" source="yEK2F6XeM_rVD2lMVvi1-1" target="yEK2F6XeM_rVD2lMVvi1-2">
          <mxGeometry width="50" height="50" relative="1" as="geometry">
            <mxPoint x="390" y="280" as="sourcePoint" />
            <mxPoint x="440" y="230" as="targetPoint" />
          </mxGeometry>
        </mxCell>
        <mxCell id="yEK2F6XeM_rVD2lMVvi1-22" value="" style="endArrow=none;html=1;rounded=0;entryX=0;entryY=0.5;entryDx=0;entryDy=0;exitX=1;exitY=0.5;exitDx=0;exitDy=0;" edge="1" parent="1" source="yEK2F6XeM_rVD2lMVvi1-1" target="yEK2F6XeM_rVD2lMVvi1-8">
          <mxGeometry width="50" height="50" relative="1" as="geometry">
            <mxPoint x="390" y="280" as="sourcePoint" />
            <mxPoint x="440" y="230" as="targetPoint" />
          </mxGeometry>
        </mxCell>
        <mxCell id="yEK2F6XeM_rVD2lMVvi1-38" style="edgeStyle=orthogonalEdgeStyle;rounded=0;orthogonalLoop=1;jettySize=auto;html=1;entryX=1;entryY=0.5;entryDx=0;entryDy=0;" edge="1" parent="1" source="yEK2F6XeM_rVD2lMVvi1-23" target="yEK2F6XeM_rVD2lMVvi1-8">
          <mxGeometry relative="1" as="geometry" />
        </mxCell>
        <mxCell id="yEK2F6XeM_rVD2lMVvi1-23" value="Автор" style="rounded=1;whiteSpace=wrap;html=1;" vertex="1" parent="1">
          <mxGeometry x="560" y="230" width="80" height="20" as="geometry" />
        </mxCell>
        <mxCell id="yEK2F6XeM_rVD2lMVvi1-24" value="" style="endArrow=none;html=1;rounded=0;entryX=0;entryY=0.5;entryDx=0;entryDy=0;exitX=1;exitY=0.5;exitDx=0;exitDy=0;" edge="1" parent="1" source="yEK2F6XeM_rVD2lMVvi1-3" target="yEK2F6XeM_rVD2lMVvi1-23">
          <mxGeometry width="50" height="50" relative="1" as="geometry">
            <mxPoint x="390" y="280" as="sourcePoint" />
            <mxPoint x="440" y="230" as="targetPoint" />
          </mxGeometry>
        </mxCell>
        <mxCell id="yEK2F6XeM_rVD2lMVvi1-27" value="Отклик" style="rounded=0;whiteSpace=wrap;html=1;" vertex="1" parent="1">
          <mxGeometry x="30" y="200" width="120" height="60" as="geometry" />
        </mxCell>
        <mxCell id="yEK2F6XeM_rVD2lMVvi1-28" value="Текст" style="rounded=1;whiteSpace=wrap;html=1;" vertex="1" parent="1">
          <mxGeometry x="180" y="220" width="60" height="20" as="geometry" />
        </mxCell>
        <mxCell id="yEK2F6XeM_rVD2lMVvi1-34" style="edgeStyle=orthogonalEdgeStyle;rounded=0;orthogonalLoop=1;jettySize=auto;html=1;entryX=0.5;entryY=0;entryDx=0;entryDy=0;" edge="1" parent="1" source="yEK2F6XeM_rVD2lMVvi1-29" target="yEK2F6XeM_rVD2lMVvi1-3">
          <mxGeometry relative="1" as="geometry" />
        </mxCell>
        <mxCell id="yEK2F6XeM_rVD2lMVvi1-29" value="Объявление" style="rounded=1;whiteSpace=wrap;html=1;" vertex="1" parent="1">
          <mxGeometry x="180" y="250" width="70" height="20" as="geometry" />
        </mxCell>
        <mxCell id="yEK2F6XeM_rVD2lMVvi1-30" value="Дата отклика" style="rounded=1;whiteSpace=wrap;html=1;" vertex="1" parent="1">
          <mxGeometry x="180" y="280" width="60" height="30" as="geometry" />
        </mxCell>
        <mxCell id="yEK2F6XeM_rVD2lMVvi1-31" value="" style="endArrow=none;html=1;rounded=0;entryX=0;entryY=0.5;entryDx=0;entryDy=0;exitX=1;exitY=0.5;exitDx=0;exitDy=0;" edge="1" parent="1" source="yEK2F6XeM_rVD2lMVvi1-27" target="yEK2F6XeM_rVD2lMVvi1-28">
          <mxGeometry width="50" height="50" relative="1" as="geometry">
            <mxPoint x="390" y="280" as="sourcePoint" />
            <mxPoint x="440" y="230" as="targetPoint" />
          </mxGeometry>
        </mxCell>
        <mxCell id="yEK2F6XeM_rVD2lMVvi1-32" value="" style="endArrow=none;html=1;rounded=0;entryX=0;entryY=0.25;entryDx=0;entryDy=0;exitX=1;exitY=0.5;exitDx=0;exitDy=0;" edge="1" parent="1" source="yEK2F6XeM_rVD2lMVvi1-27" target="yEK2F6XeM_rVD2lMVvi1-29">
          <mxGeometry width="50" height="50" relative="1" as="geometry">
            <mxPoint x="160" y="240" as="sourcePoint" />
            <mxPoint x="190" y="210" as="targetPoint" />
          </mxGeometry>
        </mxCell>
        <mxCell id="yEK2F6XeM_rVD2lMVvi1-33" value="" style="endArrow=none;html=1;rounded=0;entryX=0;entryY=0.25;entryDx=0;entryDy=0;exitX=1;exitY=0.5;exitDx=0;exitDy=0;" edge="1" parent="1" source="yEK2F6XeM_rVD2lMVvi1-27" target="yEK2F6XeM_rVD2lMVvi1-30">
          <mxGeometry width="50" height="50" relative="1" as="geometry">
            <mxPoint x="160" y="240" as="sourcePoint" />
            <mxPoint x="190" y="235" as="targetPoint" />
          </mxGeometry>
        </mxCell>
        <mxCell id="yEK2F6XeM_rVD2lMVvi1-37" style="edgeStyle=orthogonalEdgeStyle;rounded=0;orthogonalLoop=1;jettySize=auto;html=1;entryX=0.5;entryY=1;entryDx=0;entryDy=0;" edge="1" parent="1" source="yEK2F6XeM_rVD2lMVvi1-35" target="yEK2F6XeM_rVD2lMVvi1-8">
          <mxGeometry relative="1" as="geometry" />
        </mxCell>
        <mxCell id="yEK2F6XeM_rVD2lMVvi1-35" value="Пользователь" style="rounded=1;whiteSpace=wrap;html=1;" vertex="1" parent="1">
          <mxGeometry x="180" y="190" width="80" height="20" as="geometry" />
        </mxCell>
        <mxCell id="yEK2F6XeM_rVD2lMVvi1-36" value="" style="endArrow=none;html=1;rounded=0;entryX=0;entryY=0.5;entryDx=0;entryDy=0;exitX=1;exitY=0.5;exitDx=0;exitDy=0;" edge="1" parent="1" source="yEK2F6XeM_rVD2lMVvi1-27" target="yEK2F6XeM_rVD2lMVvi1-35">
          <mxGeometry width="50" height="50" relative="1" as="geometry">
            <mxPoint x="160" y="240" as="sourcePoint" />
            <mxPoint x="190" y="240" as="targetPoint" />
          </mxGeometry>
        </mxCell>
        <mxCell id="yEK2F6XeM_rVD2lMVvi1-42" style="edgeStyle=orthogonalEdgeStyle;rounded=0;orthogonalLoop=1;jettySize=auto;html=1;entryX=0;entryY=0.5;entryDx=0;entryDy=0;" edge="1" parent="1" source="yEK2F6XeM_rVD2lMVvi1-39" target="yEK2F6XeM_rVD2lMVvi1-44">
          <mxGeometry relative="1" as="geometry">
            <mxPoint x="700" y="140" as="targetPoint" />
          </mxGeometry>
        </mxCell>
        <mxCell id="yEK2F6XeM_rVD2lMVvi1-39" value="Категория" style="rounded=1;whiteSpace=wrap;html=1;" vertex="1" parent="1">
          <mxGeometry x="560" y="400" width="80" height="30" as="geometry" />
        </mxCell>
        <mxCell id="yEK2F6XeM_rVD2lMVvi1-43" value="" style="endArrow=none;html=1;rounded=0;entryX=0;entryY=0.5;entryDx=0;entryDy=0;exitX=1;exitY=0.5;exitDx=0;exitDy=0;" edge="1" parent="1" source="yEK2F6XeM_rVD2lMVvi1-3" target="yEK2F6XeM_rVD2lMVvi1-39">
          <mxGeometry width="50" height="50" relative="1" as="geometry">
            <mxPoint x="500" y="430" as="sourcePoint" />
            <mxPoint x="550" y="380" as="targetPoint" />
          </mxGeometry>
        </mxCell>
        <mxCell id="yEK2F6XeM_rVD2lMVvi1-44" value="Категории" style="rounded=0;whiteSpace=wrap;html=1;" vertex="1" parent="1">
          <mxGeometry x="690" y="110" width="120" height="60" as="geometry" />
        </mxCell>
        <mxCell id="yEK2F6XeM_rVD2lMVvi1-46" value="Название" style="rounded=1;whiteSpace=wrap;html=1;" vertex="1" parent="1">
          <mxGeometry x="715" y="190" width="70" height="20" as="geometry" />
        </mxCell>
        <mxCell id="yEK2F6XeM_rVD2lMVvi1-47" value="" style="endArrow=none;html=1;rounded=0;entryX=0.5;entryY=1;entryDx=0;entryDy=0;exitX=0.5;exitY=0;exitDx=0;exitDy=0;" edge="1" parent="1" source="yEK2F6XeM_rVD2lMVvi1-46" target="yEK2F6XeM_rVD2lMVvi1-44">
          <mxGeometry width="50" height="50" relative="1" as="geometry">
            <mxPoint x="390" y="280" as="sourcePoint" />
            <mxPoint x="440" y="230" as="targetPoint" />
          </mxGeometry>
        </mxCell>
        <mxCell id="yEK2F6XeM_rVD2lMVvi1-56" style="edgeStyle=orthogonalEdgeStyle;rounded=0;orthogonalLoop=1;jettySize=auto;html=1;entryX=0;entryY=0.5;entryDx=0;entryDy=0;" edge="1" parent="1" source="yEK2F6XeM_rVD2lMVvi1-48" target="yEK2F6XeM_rVD2lMVvi1-52">
          <mxGeometry relative="1" as="geometry" />
        </mxCell>
        <mxCell id="yEK2F6XeM_rVD2lMVvi1-48" value="Posts" style="text;html=1;strokeColor=none;fillColor=none;align=center;verticalAlign=middle;whiteSpace=wrap;rounded=0;" vertex="1" parent="1">
          <mxGeometry x="40" y="350" width="60" height="30" as="geometry" />
        </mxCell>
        <mxCell id="yEK2F6XeM_rVD2lMVvi1-57" style="edgeStyle=orthogonalEdgeStyle;rounded=0;orthogonalLoop=1;jettySize=auto;html=1;entryX=0;entryY=0.5;entryDx=0;entryDy=0;" edge="1" parent="1" source="yEK2F6XeM_rVD2lMVvi1-49" target="yEK2F6XeM_rVD2lMVvi1-52">
          <mxGeometry relative="1" as="geometry" />
        </mxCell>
        <mxCell id="yEK2F6XeM_rVD2lMVvi1-49" value="Posts/id" style="text;html=1;strokeColor=none;fillColor=none;align=center;verticalAlign=middle;whiteSpace=wrap;rounded=0;" vertex="1" parent="1">
          <mxGeometry x="40" y="390" width="60" height="30" as="geometry" />
        </mxCell>
        <mxCell id="yEK2F6XeM_rVD2lMVvi1-59" style="edgeStyle=orthogonalEdgeStyle;rounded=0;orthogonalLoop=1;jettySize=auto;html=1;entryX=0;entryY=0.5;entryDx=0;entryDy=0;" edge="1" parent="1" source="yEK2F6XeM_rVD2lMVvi1-50" target="yEK2F6XeM_rVD2lMVvi1-54">
          <mxGeometry relative="1" as="geometry" />
        </mxCell>
        <mxCell id="yEK2F6XeM_rVD2lMVvi1-50" value="messages" style="text;html=1;strokeColor=none;fillColor=none;align=center;verticalAlign=middle;whiteSpace=wrap;rounded=0;" vertex="1" parent="1">
          <mxGeometry x="40" y="420" width="60" height="30" as="geometry" />
        </mxCell>
        <mxCell id="yEK2F6XeM_rVD2lMVvi1-58" style="edgeStyle=orthogonalEdgeStyle;rounded=0;orthogonalLoop=1;jettySize=auto;html=1;entryX=0;entryY=0.5;entryDx=0;entryDy=0;" edge="1" parent="1" source="yEK2F6XeM_rVD2lMVvi1-51" target="yEK2F6XeM_rVD2lMVvi1-53">
          <mxGeometry relative="1" as="geometry" />
        </mxCell>
        <mxCell id="yEK2F6XeM_rVD2lMVvi1-51" value="Posts/id/like" style="text;html=1;strokeColor=none;fillColor=none;align=center;verticalAlign=middle;whiteSpace=wrap;rounded=0;" vertex="1" parent="1">
          <mxGeometry x="40" y="460" width="60" height="30" as="geometry" />
        </mxCell>
        <mxCell id="yEK2F6XeM_rVD2lMVvi1-52" value="Доступно всем" style="text;html=1;strokeColor=none;fillColor=none;align=center;verticalAlign=middle;whiteSpace=wrap;rounded=0;" vertex="1" parent="1">
          <mxGeometry x="200" y="360" width="110" height="30" as="geometry" />
        </mxCell>
        <mxCell id="yEK2F6XeM_rVD2lMVvi1-53" value="Залогиненные" style="text;html=1;strokeColor=none;fillColor=none;align=center;verticalAlign=middle;whiteSpace=wrap;rounded=0;" vertex="1" parent="1">
          <mxGeometry x="200" y="400" width="110" height="30" as="geometry" />
        </mxCell>
        <mxCell id="yEK2F6XeM_rVD2lMVvi1-54" value="Доступно пользователю" style="text;html=1;strokeColor=none;fillColor=none;align=center;verticalAlign=middle;whiteSpace=wrap;rounded=0;" vertex="1" parent="1">
          <mxGeometry x="200" y="450" width="110" height="30" as="geometry" />
        </mxCell>
        <mxCell id="yEK2F6XeM_rVD2lMVvi1-55" value="" style="endArrow=classic;html=1;rounded=0;" edge="1" parent="1">
          <mxGeometry width="50" height="50" relative="1" as="geometry">
            <mxPoint x="390" y="370" as="sourcePoint" />
            <mxPoint x="440" y="320" as="targetPoint" />
          </mxGeometry>
        </mxCell>
      </root>
    </mxGraphModel>
  </diagram>
</mxfile>
